<svg width="137" height="32" viewBox="0 0 137 32" fill="none" xmlns="http://www.w3.org/2000/svg">
<path fill-rule="evenodd" clip-rule="evenodd" d="M0.399902 10.3889C0.399902 11.7776 0.67027 13.1016 1.15992 14.3088C1.64748 15.5137 2.36962 16.6424 3.32633 17.622L9.81602 24.2661L11.2714 20.5783C16.3769 20.1221 20.3821 15.7342 20.3821 10.3889C20.3821 4.73963 15.9088 0.160156 10.391 0.160156C4.87313 0.160156 0.399902 4.73963 0.399902 10.3889ZM13.3449 7.72056C13.3449 7.08175 13.8505 6.56426 14.4743 6.56426C15.0981 6.56426 15.6037 7.08175 15.6037 7.72056C15.6037 8.35921 15.0981 8.87669 14.4743 8.87669C13.8505 8.87669 13.3449 8.35921 13.3449 7.72056ZM5.17825 7.72056C5.17825 7.08175 5.68406 6.56426 6.30767 6.56426C6.93146 6.56426 7.4371 7.08175 7.4371 7.72056C7.4371 8.35921 6.93146 8.87669 6.30767 8.87669C5.68406 8.87669 5.17825 8.35921 5.17825 7.72056ZM13.8661 11.9008C13.8661 11.5081 14.1773 11.1895 14.5612 11.1895C14.945 11.1895 15.2562 11.5081 15.2562 11.9008C15.2562 14.4554 13.078 16.526 10.391 16.526C7.70399 16.526 5.52576 14.4554 5.52576 11.9008C5.52576 11.5081 5.83696 11.1895 6.22079 11.1895C6.60463 11.1895 6.91583 11.5081 6.91583 11.9008C6.91583 13.6694 8.47165 15.1029 10.391 15.1029C12.3103 15.1029 13.8661 13.6694 13.8661 11.9008Z" fill="#0097F3"/>
<path opacity="0.4" fill-rule="evenodd" clip-rule="evenodd" d="M21.9456 10.2997C21.9456 16.1678 17.7724 21.0376 12.2989 21.9691L10.9351 25.4247L16.5215 31.1442C16.8606 31.4912 17.411 31.4907 17.7493 31.1442L30.9584 17.6208C34.86 13.6266 34.8605 7.15137 30.9579 3.15574C29.007 1.15836 26.4503 0.159856 23.8931 0.160034C21.993 0.160212 20.0925 0.711678 18.4416 1.81425C20.6028 3.96372 21.9456 6.97116 21.9456 10.2997Z" fill="#0097F3"/>
<path d="M42.1477 15.0908C42.3564 14.5148 42.6562 14.0131 43.0442 13.5886C43.4292 13.1641 43.8966 12.8286 44.4434 12.5822C44.9901 12.3358 45.6074 12.2141 46.2981 12.2141C46.9713 12.2141 47.5973 12.3388 48.1764 12.5822C48.7554 12.8286 49.2551 13.1641 49.6755 13.5886C50.0958 14.0131 50.4221 14.5148 50.6601 15.0908C50.8954 15.6697 51.0129 16.2871 51.0129 16.9492C51.0129 17.6112 50.8954 18.2315 50.6601 18.8076C50.4251 19.3864 50.0958 19.8851 49.6755 20.3097C49.2551 20.7342 48.7554 21.0697 48.1764 21.316C47.5973 21.5625 46.9713 21.6843 46.2981 21.6843C45.6074 21.6843 44.9901 21.5625 44.4434 21.316C43.8966 21.0697 43.4292 20.7342 43.0442 20.3097C42.6562 19.8851 42.3594 19.3834 42.1477 18.8076C41.9361 18.2315 41.8332 17.6112 41.8332 16.9492C41.8332 16.2871 41.9391 15.6697 42.1477 15.0908ZM52.6002 3.6554H50.9366V12.9771H50.8866C50.6162 12.5703 50.2987 12.223 49.9283 11.9321C49.558 11.6441 49.1729 11.4066 48.7672 11.2196C48.3645 11.0326 47.9471 10.896 47.5179 10.8129C47.0889 10.7268 46.6802 10.6852 46.2952 10.6852C45.3692 10.6852 44.5256 10.8426 43.7614 11.1572C42.9972 11.4719 42.3358 11.9083 41.7832 12.4694C41.2306 13.0305 40.7956 13.6925 40.484 14.4555C40.1725 15.2184 40.0166 16.0526 40.0166 16.9521C40.0166 17.8516 40.1725 18.6829 40.484 19.4489C40.7956 20.2117 41.2277 20.8738 41.7832 21.4348C42.3387 21.996 42.9972 22.4322 43.7614 22.7469C44.5256 23.0616 45.3722 23.2191 46.2952 23.2191C46.6802 23.2191 47.0889 23.1774 47.5179 23.0914C47.9471 23.0053 48.3617 22.8717 48.7672 22.6847C49.17 22.4977 49.558 22.2601 49.9283 21.9722C50.2987 21.6843 50.6162 21.3369 50.8866 20.9272H50.9366V22.9133H52.6002V3.6554ZM58.2733 5.52864C58.0205 5.30004 57.7443 5.18426 57.4414 5.18426C57.1387 5.18426 56.8624 5.30004 56.6096 5.52864C56.3568 5.75721 56.2305 6.05113 56.2305 6.40737C56.2305 6.76361 56.3568 7.0575 56.6096 7.28609C56.8624 7.51467 57.1387 7.63046 57.4414 7.63046C57.7443 7.63046 58.0205 7.51467 58.2733 7.28609C58.5262 7.0575 58.6525 6.76361 58.6525 6.40737C58.6525 6.05113 58.5262 5.75721 58.2733 5.52864ZM58.2733 10.991H56.6096V22.9103H58.2733V10.991ZM69.8488 16.9759V17.8427C69.8488 18.3682 69.7782 18.8669 69.6342 19.3331C69.4901 19.7991 69.2696 20.2087 68.9669 20.5562C68.6641 20.9034 68.2908 21.1796 67.8441 21.3844C67.3972 21.5893 66.874 21.6902 66.2685 21.6902C65.9335 21.6902 65.6012 21.6515 65.272 21.5744C64.9429 21.4973 64.6459 21.3696 64.3756 21.1915C64.1052 21.0132 63.8936 20.7848 63.7318 20.5026C63.5731 20.2236 63.4908 19.8881 63.4908 19.4963C63.4908 18.9026 63.6965 18.4364 64.108 18.0951C64.5196 17.7566 65.0164 17.5043 65.5953 17.344C66.1745 17.1837 66.78 17.0798 67.412 17.0382C68.041 16.9966 68.5671 16.9759 68.9874 16.9759H69.8488ZM69.0168 15.6014C68.3113 15.6014 67.5324 15.637 66.6829 15.7023C65.8336 15.7706 65.0339 15.9398 64.2873 16.2129C63.5379 16.486 62.9175 16.8957 62.4208 17.4479C61.924 18.0001 61.6771 18.76 61.6771 19.7279C61.6771 20.3067 61.7918 20.8114 62.0182 21.2419C62.2444 21.6753 62.5473 22.0404 62.9264 22.3373C63.3056 22.6341 63.7377 22.8568 64.2256 22.9994C64.7135 23.1447 65.2162 23.2161 65.7394 23.2161C66.6977 23.2161 67.5089 23.0408 68.1732 22.6936C68.8375 22.3462 69.4137 21.7733 69.9016 20.9748H69.9516C69.9516 21.2982 69.9634 21.6278 69.9898 21.9692C70.0163 22.3077 70.0515 22.6224 70.1045 22.9103H71.7182C71.6682 22.5867 71.6213 22.177 71.5801 21.6753C71.5389 21.1736 71.5184 20.6956 71.5184 20.2355V14.9126C71.5184 14.1823 71.4008 13.556 71.1655 13.0275C70.9304 12.5021 70.6188 12.0627 70.2338 11.7154C69.8458 11.368 69.3902 11.1098 68.8582 10.9376C68.3291 10.7684 67.7763 10.6823 67.2062 10.6823C64.987 10.6823 63.3233 11.2612 62.2121 12.413L63.2204 13.6094C64.2463 12.6772 65.4483 12.2082 66.8269 12.2082C68.8434 12.2082 69.8517 13.2353 69.8517 15.2897V15.5954H69.0168V15.6014ZM77.4147 3.6554H75.7511V22.9103H77.4147V3.6554ZM91.2212 18.8106C91.0095 19.3894 90.7127 19.8881 90.3247 20.3127C89.9367 20.7372 89.4723 21.0727 88.9255 21.319C88.3788 21.5655 87.7615 21.6872 87.0708 21.6872C86.3799 21.6872 85.7627 21.5655 85.2159 21.319C84.6693 21.0727 84.2078 20.7372 83.8286 20.3127C83.4493 19.8881 83.1555 19.3864 82.9468 18.8106C82.7352 18.2345 82.6323 17.6141 82.6323 16.9521C82.6323 16.2901 82.7381 15.6697 82.9468 15.0937C83.1555 14.5178 83.4523 14.0161 83.8286 13.5916C84.2078 13.1671 84.6693 12.8316 85.2159 12.5852C85.7627 12.3388 86.3799 12.2171 87.0708 12.2171C87.7585 12.2171 88.3788 12.3417 88.9255 12.5852C89.4723 12.8316 89.9367 13.1671 90.3247 13.5916C90.7098 14.0161 91.0095 14.5178 91.2212 15.0937C91.4298 15.6726 91.5357 16.2901 91.5357 16.9521C91.5357 17.6112 91.4298 18.2315 91.2212 18.8106ZM92.8849 14.4555C92.5733 13.6925 92.1412 13.0305 91.5857 12.4694C91.0302 11.9083 90.3716 11.4719 89.6075 11.1572C88.8433 10.8426 87.9967 10.6852 87.0737 10.6852C86.1655 10.6852 85.3306 10.8426 84.5634 11.1572C83.7993 11.4719 83.1378 11.9083 82.5852 12.4694C82.0327 13.0305 81.5976 13.6925 81.286 14.4555C80.9745 15.2184 80.8186 16.0526 80.8186 16.9521C80.8186 17.8516 80.9745 18.6829 81.286 19.4489C81.5976 20.2117 82.0297 20.8738 82.5852 21.4348C83.1407 21.996 83.7993 22.4322 84.5634 22.7469C85.3276 23.0616 86.1655 23.2191 87.0737 23.2191C87.9967 23.2191 88.8433 23.0616 89.6075 22.7469C90.3716 22.4322 91.0331 21.996 91.5857 21.4348C92.1412 20.8738 92.5733 20.2117 92.8849 19.4489C93.1964 18.6858 93.3523 17.8516 93.3523 16.9521C93.3493 16.0496 93.1935 15.2184 92.8849 14.4555ZM97.926 15.0284C98.1524 14.4762 98.4639 13.9923 98.8578 13.5767C99.2517 13.1611 99.7162 12.8286 100.245 12.5822C100.774 12.3358 101.35 12.2141 101.974 12.2141C102.661 12.2141 103.285 12.3388 103.84 12.5822C104.396 12.8286 104.866 13.1611 105.251 13.5767C105.639 13.9923 105.933 14.4762 106.133 15.0284C106.336 15.5806 106.436 16.1714 106.436 16.7978C106.453 17.4954 106.347 18.1219 106.121 18.6829C105.895 19.244 105.571 19.7219 105.151 20.1227C104.731 20.5205 104.249 20.8322 103.702 21.0519C103.155 21.2716 102.579 21.3844 101.974 21.3844C101.35 21.3844 100.774 21.2627 100.245 21.0162C99.7162 20.7699 99.2517 20.4403 98.8578 20.0217C98.4639 19.6061 98.1524 19.1223 97.926 18.57C97.6997 18.018 97.585 17.4271 97.585 16.8007C97.588 16.1684 97.6997 15.5806 97.926 15.0284ZM96.0478 26.627C96.8031 27.4434 97.6438 28.0432 98.5697 28.435C99.4927 28.8269 100.545 29.0198 101.721 29.0198C103.049 29.0198 104.125 28.815 104.948 28.4083C105.771 28.0016 106.415 27.491 106.877 26.8794C107.338 26.2679 107.65 25.5968 107.808 24.8667C107.967 24.1364 108.049 23.4475 108.049 22.8034V10.9851H106.386V12.9771H106.336C106.001 12.5199 105.639 12.1399 105.251 11.843C104.863 11.5461 104.472 11.3116 104.078 11.1424C103.684 10.9732 103.287 10.8544 102.894 10.7862C102.5 10.7179 102.123 10.6852 101.771 10.6852C100.898 10.6852 100.092 10.8426 99.3635 11.1572C98.6314 11.4719 98.0024 11.9083 97.4733 12.4694C96.9442 13.0305 96.5269 13.6836 96.2242 14.4317C95.9213 15.1798 95.7714 15.9843 95.7714 16.8512C95.7714 17.718 95.9302 18.5226 96.2506 19.2706C96.571 20.0188 97.0059 20.6601 97.5616 21.1943C98.1171 21.7287 98.7668 22.1503 99.5162 22.456C100.263 22.7618 101.068 22.9133 101.924 22.9133C102.782 22.9133 103.596 22.744 104.369 22.4027C105.142 22.0642 105.798 21.4854 106.336 20.672H106.386V22.8124C106.386 23.4564 106.306 24.065 106.147 24.6321C105.989 25.202 105.727 25.6978 105.366 26.1223C105.004 26.5469 104.528 26.8824 103.94 27.1287C103.352 27.3752 102.638 27.4969 101.797 27.4969C100.839 27.4969 99.9688 27.298 99.1871 26.8973C98.4052 26.4995 97.7703 25.968 97.2824 25.3059L96.0478 26.627ZM122.023 22.9103C121.988 22.4679 121.962 22.0019 121.935 21.509C121.909 21.0162 121.897 20.6095 121.897 20.2859V10.991H120.233V17.1035C120.233 18.1901 120.066 19.0392 119.728 19.6507C119.393 20.2623 119.007 20.7194 118.581 21.0251C118.152 21.3309 117.744 21.5179 117.359 21.5863C116.971 21.6545 116.735 21.6872 116.653 21.6872C116.03 21.6872 115.513 21.5982 115.101 21.4199C114.689 21.2419 114.36 20.9777 114.116 20.6303C113.872 20.2829 113.699 19.8526 113.599 19.345C113.499 18.8343 113.449 18.2494 113.449 17.5874V10.991H111.785V18.5552C111.785 20.0485 112.147 21.2002 112.87 22.0049C113.593 22.8124 114.71 23.2131 116.224 23.2131C116.612 23.2131 117 23.1566 117.397 23.0468C117.791 22.9369 118.167 22.7826 118.52 22.5897C118.872 22.3938 119.193 22.1622 119.478 21.8891C119.763 21.6188 119.998 21.319 120.183 20.9984H120.233C120.233 21.322 120.236 21.6396 120.245 21.9543C120.254 22.269 120.274 22.5867 120.307 22.9103H122.023ZM127.014 16.0318C127.014 15.539 127.129 15.064 127.356 14.6069C127.582 14.1497 127.885 13.74 128.264 13.3838C128.643 13.0275 129.084 12.7425 129.586 12.5318C130.092 12.321 130.612 12.2141 131.15 12.2141C132.361 12.2141 133.302 12.5674 133.975 13.271C134.648 13.9745 134.983 14.8978 134.983 16.0348H127.014V16.0318ZM136.8 17.4093V16.6463C136.8 15.83 136.673 15.064 136.421 14.3427C136.168 13.6213 135.803 12.9919 135.324 12.4575C134.845 11.9232 134.251 11.4927 133.546 11.1721C132.84 10.8485 132.041 10.6882 131.15 10.6882C130.31 10.6882 129.528 10.8455 128.805 11.1602C128.081 11.4749 127.452 11.9113 126.915 12.4724C126.377 13.0335 125.956 13.6955 125.654 14.4584C125.351 15.2214 125.201 16.0556 125.201 16.9551C125.201 17.8546 125.357 18.6858 125.668 19.4518C125.98 20.2147 126.403 20.8768 126.941 21.4378C127.479 21.9989 128.123 22.4352 128.869 22.7499C129.616 23.0646 130.427 23.222 131.303 23.222C132.279 23.222 133.19 23.0261 134.04 22.6371C134.889 22.2452 135.665 21.6012 136.374 20.7015L135.086 19.6329C134.751 20.176 134.257 20.6571 133.61 21.0727C132.964 21.4883 132.194 21.6962 131.303 21.6962C130.715 21.6962 130.168 21.5863 129.663 21.3636C129.157 21.1439 128.713 20.8411 128.325 20.4582C127.937 20.0751 127.629 19.621 127.394 19.0955C127.158 18.57 127.014 18.009 126.965 17.4152H136.8V17.4093Z" fill="#0097F3"/>
</svg>
