<svg id="Layer_1" data-name="Layer 1" xmlns="http://www.w3.org/2000/svg" viewBox="0 0 127.37 52.21"><defs><style>.cls-1{fill:#003946;}.cls-2{fill:#e9ac21;}</style></defs><title>SLF_E_128x53</title><path class="cls-1" d="M7.35,26.7C7.1,25.79,6.75,24,4.71,24a1.74,1.74,0,0,0-1.87,1.78c0,2.74,6,2.56,6,6.37,0,2.53-2.35,3.45-4.6,3.45a7.16,7.16,0,0,1-3.29-.71,7.87,7.87,0,0,1-.54-3.35l.88-.18c.26,1.07.88,3.56,3.27,3.56a1.86,1.86,0,0,0,2-2c0-3-5.8-2.78-5.8-6.42,0-2.26,1.76-3.21,4.17-3.21A5.76,5.76,0,0,1,7.81,24,16.44,16.44,0,0,1,8,26.7Z" transform="translate(-0.39 -0.23)"/><path class="cls-1" d="M16.8,34.69A5.23,5.23,0,0,1,14,35.6c-2.9,0-3-1.6-3-3.58V29.44c0-.62,0-1.42-.56-1.42a2.11,2.11,0,0,0-.6.11v-.52a13,13,0,0,1,3.4-.64v5c0,1.41.28,2.6,2.11,2.6a2.78,2.78,0,0,0,1.4-.44V29.44c0-.62,0-1.42-.56-1.42a2.14,2.14,0,0,0-.6.11v-.52a13,13,0,0,1,3.4-.64v5.32c0,1.46,0,2.15.63,2.15a2.81,2.81,0,0,0,.52,0l0,.46a23.08,23.08,0,0,1-2.82.71Z" transform="translate(-0.39 -0.23)"/><path class="cls-1" d="M22.43,29.44c0-.62,0-1.42-.56-1.42a2.15,2.15,0,0,0-.6.11v-.52A12.76,12.76,0,0,1,24.63,27v1a4.34,4.34,0,0,1,3-1c1.68,0,2.82.77,2.82,3.17v3.51c0,.94.09,1.14.77,1.19l.39,0v.46H27v-.46l.39,0c.67-.05.77-.25.77-1.19V31.11c0-1.41,0-3.11-1.94-3.11a2.11,2.11,0,0,0-1.55.68v5c0,.94.09,1.14.77,1.19l.39,0v.46H21.31v-.46l.39,0c.64-.05.73-.25.73-1.19Z" transform="translate(-0.39 -0.23)"/><path class="cls-1" d="M52.06,51.71l.43-.05c.9-.11.9-.14.9-2.1V43c0-1.87,0-2-.88-2.1l-.45-.05v-.46h8.62a18.46,18.46,0,0,1,.21,2.88l-.67.07c-.39-1.67-.49-2.28-2.92-2.28H55.81V46h1.46c1.46,0,1.83,0,2-.77l.11-.62h.49v3.58h-.49l-.09-.68c-.15-.71-.62-.71-2-.71H55.81v2.7c0,1.9,0,2,.9,2.1l.43.05v.46H52.06Z" transform="translate(-0.39 -0.23)"/><path class="cls-1" d="M62,51.71l.39,0c.67-.07.77-.25.77-1.19v-4.2c0-.62,0-1.42-.56-1.42A2.19,2.19,0,0,0,62,45v-.52a13,13,0,0,1,3.4-.64v6.67c0,.94.09,1.12.77,1.19l.39,0v.46H62Zm.84-10.65a1.26,1.26,0,0,1,1.31-1.23,1.28,1.28,0,0,1,1.31,1.23,1.31,1.31,0,0,1-2.62,0Z" transform="translate(-0.39 -0.23)"/><path class="cls-1" d="M68.94,46.28c0-.62,0-1.42-.56-1.42a2.16,2.16,0,0,0-.6.11v-.52a12.7,12.7,0,0,1,3.36-.64v1a4.35,4.35,0,0,1,3-1c1.68,0,2.82.77,2.82,3.17v3.51c0,.94.09,1.14.77,1.19l.39,0v.46H73.52v-.46l.39,0c.67-.05.77-.25.77-1.19V48c0-1.41,0-3.11-1.94-3.11a2.11,2.11,0,0,0-1.55.68v5c0,.94.09,1.14.77,1.19l.39,0v.46H67.82v-.46l.39,0c.64-.05.73-.25.73-1.19Z" transform="translate(-0.39 -0.23)"/><path class="cls-1" d="M83.94,50c0,.34.06.78.07,1a1.76,1.76,0,0,1-1.14.43,1.38,1.38,0,0,1-1.38-1.49c0-1.32,1.18-1.85,2.24-1.85l.21,0Zm3.59,1.74a.47.47,0,0,1-.15,0c-1.2,0-1.2-1.32-1.2-2.6V47c0-2-.41-3.19-2.76-3.19a5.51,5.51,0,0,0-4,1.89,2.59,2.59,0,0,0,.5.91h.19a2.48,2.48,0,0,1,2.22-1.76c1.33,0,1.63.94,1.63,2v.43c-1.55.39-4.84,1-4.84,3.24,0,1.14,1,1.94,2.45,1.94a4.24,4.24,0,0,0,2.6-.91,1.83,1.83,0,0,0,1.83.91A3.24,3.24,0,0,0,87.58,52Z" transform="translate(-0.39 -0.23)"/><path class="cls-1" d="M89.51,46.28c0-.62,0-1.42-.56-1.42a2.19,2.19,0,0,0-.6.11v-.52a12.73,12.73,0,0,1,3.36-.64v1a4.34,4.34,0,0,1,3-1c1.68,0,2.82.77,2.82,3.17v3.51c0,.94.09,1.14.77,1.19l.39,0v.46H94.09v-.46l.39,0c.67-.05.77-.25.77-1.19V48c0-1.41,0-3.11-1.94-3.11a2.11,2.11,0,0,0-1.55.68v5c0,.94.09,1.14.77,1.19l.39,0v.46H88.39v-.46l.39,0c.64-.05.73-.25.73-1.19Z" transform="translate(-0.39 -0.23)"/><path class="cls-1" d="M107.1,51.53a5.59,5.59,0,0,1-3.36.91,4.12,4.12,0,0,1-4.37-3.93,4.73,4.73,0,0,1,4.92-4.7,4.28,4.28,0,0,1,2.54.59,2.54,2.54,0,0,1-.73,1.46h-.17a2.89,2.89,0,0,0-2.15-1.16c-1.2,0-2,1.08-2,2.88,0,2.65,1.61,3.83,3.48,3.83a6.2,6.2,0,0,0,1.7-.3Z" transform="translate(-0.39 -0.23)"/><path class="cls-1" d="M108.08,51.71l.39,0c.67-.07.76-.25.76-1.19v-4.2c0-.62,0-1.42-.56-1.42a2.2,2.2,0,0,0-.6.11v-.52a13,13,0,0,1,3.4-.64v6.67c0,.94.09,1.12.77,1.19l.39,0v.46h-4.56Zm.84-10.65a1.26,1.26,0,0,1,1.31-1.23,1.28,1.28,0,0,1,1.31,1.23,1.31,1.31,0,0,1-2.62,0Z" transform="translate(-0.39 -0.23)"/><path class="cls-1" d="M118.81,50a9.29,9.29,0,0,0,.08,1,1.76,1.76,0,0,1-1.14.43,1.38,1.38,0,0,1-1.38-1.49c0-1.32,1.18-1.85,2.24-1.85l.2,0Zm3.59,1.74a.47.47,0,0,1-.15,0c-1.2,0-1.2-1.32-1.2-2.6V47c0-2-.41-3.19-2.77-3.19a5.51,5.51,0,0,0-4,1.89,2.59,2.59,0,0,0,.5.91H115a2.48,2.48,0,0,1,2.23-1.76c1.33,0,1.63.94,1.63,2v.43c-1.55.39-4.84,1-4.84,3.24,0,1.14,1,1.94,2.45,1.94a4.25,4.25,0,0,0,2.6-.91,1.83,1.83,0,0,0,1.83.91,3.24,3.24,0,0,0,1.61-.45Z" transform="translate(-0.39 -0.23)"/><path class="cls-1" d="M123.2,51.71l.39,0c.67-.07.77-.25.77-1.19v-8c0-1.57,0-2.26-.64-2.26-.22,0-.45,0-.52,0v-.46a16.43,16.43,0,0,1,3.4-.41V50.48c0,.94.09,1.12.77,1.19l.39,0v.46H123.2Z" transform="translate(-0.39 -0.23)"/><path class="cls-1" d="M17.16,51.7l.45-.05c.88-.16.88-.09.88-2.12V43c0-1.73,0-1.94-.88-2.06l-.45-.05v-.46h5.08v.46l-.45.05c-.88.12-.88.34-.88,2.06v8.24a4.58,4.58,0,0,0,1.29.25c2.63,0,2.65-1.21,3.2-2.69l.67.12a12.35,12.35,0,0,1-.65,3.24H17.16Z" transform="translate(-0.39 -0.23)"/><path class="cls-1" d="M27,51.7l.39,0c.67-.07.77-.25.77-1.19v-4.2c0-.62,0-1.42-.56-1.42a2.29,2.29,0,0,0-.6.1v-.51a13,13,0,0,1,3.4-.64v6.67c0,.94.09,1.12.76,1.19l.39,0v.46H27Zm.84-10.64a1.26,1.26,0,0,1,1.31-1.23,1.28,1.28,0,0,1,1.31,1.23,1.31,1.31,0,0,1-2.62,0Z" transform="translate(-0.39 -0.23)"/><path class="cls-1" d="M33.89,44.86v-.8c0-2.47,1.29-5,4.22-5a3.32,3.32,0,0,1,2,.59A2.31,2.31,0,0,1,39.4,41h-.13a3.59,3.59,0,0,0-1.94-1c-1.12,0-1.19,1.44-1.19,3.08v1c.56,0,1.7.09,2.32.16v.46c-.8.09-1.53.14-2.32.18v5.61c0,.94.09,1.14.78,1.19l.75,0v.46H32.73V51.7l.37,0c.69-.07.79-.25.79-1.19Z" transform="translate(-0.39 -0.23)"/><path class="cls-1" d="M41.34,47.57c0-.32,0-3.1,1.63-3.1,1.18,0,1.74,1.05,1.87,2.33A23.55,23.55,0,0,1,41.34,47.57Zm5.5,3.31a4.71,4.71,0,0,1-2.06.51,3.2,3.2,0,0,1-3.33-3,31.24,31.24,0,0,0,5.62-1.71c-.21-1-.69-2.9-3.7-2.9a4.26,4.26,0,0,0-4.28,4.43,4.08,4.08,0,0,0,4.37,4.2A5.72,5.72,0,0,0,47,51.29Z" transform="translate(-0.39 -0.23)"/><path class="cls-2" d="M58.71,6.2a11.27,11.27,0,0,1,.73-4.34l-.16-.09a11.25,11.25,0,0,0-2.86,3.43A15.62,15.62,0,0,1,58.71,6.2Z" transform="translate(-0.39 -0.23)"/><path class="cls-2" d="M50.81,4.34A11.26,11.26,0,0,1,49.24.23h-.18a11.28,11.28,0,0,0-.72,4.4A15.44,15.44,0,0,1,50.81,4.34Z" transform="translate(-0.39 -0.23)"/><path class="cls-2" d="M54.88,4.74A11.28,11.28,0,0,1,54.45.36l-.18,0a11.25,11.25,0,0,0-1.85,4.06A15.26,15.26,0,0,1,54.88,4.74Z" transform="translate(-0.39 -0.23)"/><path class="cls-2" d="M62,8.6a11.25,11.25,0,0,1,1.85-4l-.13-.13A11.26,11.26,0,0,0,60.08,7,15.48,15.48,0,0,1,62,8.6Z" transform="translate(-0.39 -0.23)"/><path class="cls-2" d="M64.58,11.79a11.26,11.26,0,0,1,2.83-3.36l-.09-.16a11.24,11.24,0,0,0-4.2,1.5A15.32,15.32,0,0,1,64.58,11.79Z" transform="translate(-0.39 -0.23)"/><path class="cls-2" d="M66.07,15.12l.13.43A11.26,11.26,0,0,1,69.82,13l0-.18a11.26,11.26,0,0,0-4.45.35A15.54,15.54,0,0,1,66.07,15.12Z" transform="translate(-0.39 -0.23)"/><path class="cls-2" d="M66.28,23.66a11.28,11.28,0,0,1,4.39-.32l.05-.17a11.23,11.23,0,0,0-4-2A15.33,15.33,0,0,1,66.28,23.66Z" transform="translate(-0.39 -0.23)"/><path class="cls-2" d="M66.56,17.12a15.17,15.17,0,0,1,.23,2.48,11.28,11.28,0,0,1,4.15-1.46V18A11.25,11.25,0,0,0,66.56,17.12Z" transform="translate(-0.39 -0.23)"/><path class="cls-2" d="M65.79,25.19a15.48,15.48,0,0,1-1.07,2.25,11.25,11.25,0,0,1,4.32.85l.1-.15A11.27,11.27,0,0,0,65.79,25.19Z" transform="translate(-0.39 -0.23)"/><path class="cls-2" d="M46.73,5h0a11.27,11.27,0,0,1-2.6-3.55l-.18,0A11.26,11.26,0,0,0,44.46,6,15.54,15.54,0,0,1,46.73,5Z" transform="translate(-0.39 -0.23)"/><path class="cls-2" d="M59,33.17a11.21,11.21,0,0,1,3.29,2.92l.16-.08A11.22,11.22,0,0,0,61,31.77,15.46,15.46,0,0,1,59,33.17Z" transform="translate(-0.39 -0.23)"/><path class="cls-2" d="M62.24,30.69a11.26,11.26,0,0,1,3.94,2l.14-.12a11.27,11.27,0,0,0-2.46-3.72A15.36,15.36,0,0,1,62.24,30.69Z" transform="translate(-0.39 -0.23)"/><path class="cls-2" d="M40.87,25a14.8,14.8,0,0,0,2.49-.15l-.28-.51a26.25,26.25,0,0,1-2.52-6.72,11.12,11.12,0,0,1-1.69,0,5.66,5.66,0,0,1-2.74-1.05,15.39,15.39,0,0,0-.33,6.1S37,25,40.87,25Z" transform="translate(-0.39 -0.23)"/><path class="cls-2" d="M46.57,31.25c.54-.06,1.06-.15,1.57-.25a24.81,24.81,0,0,1-4.28-5.31,16.37,16.37,0,0,1-2.46.21c-4.59-.08-5.32-1.78-5.32-1.78s.17.55.2.66a15.29,15.29,0,0,0,1.15,2.79,13.24,13.24,0,0,0,1.07,1.68S40.87,31.84,46.57,31.25Z" transform="translate(-0.39 -0.23)"/><path class="cls-2" d="M41.16,16.66a16,16,0,0,0,4.63-1.32l.59-.26a68.75,68.75,0,0,1-3-8.14L43.2,7c-.45.27-.89.56-1.3.87C40.58,9.77,40.35,13,41.16,16.66Z" transform="translate(-0.39 -0.23)"/><path class="cls-2" d="M40.38,16.71c-.59-3.35-.27-6.34.94-8.35a15.27,15.27,0,0,0-4.81,7.22A5.38,5.38,0,0,0,40.38,16.71Z" transform="translate(-0.39 -0.23)"/><path class="cls-2" d="M49,31.74c-2.68.63-5.73.82-8.31-.38a14.9,14.9,0,0,0,14.62,3.27A11.51,11.51,0,0,1,49,31.74Z" transform="translate(-0.39 -0.23)"/><path class="cls-2" d="M61.19,24.42a20,20,0,0,1-5.8,4.89l-.81.41-.45.21a28.55,28.55,0,0,1-4.3,1.58C51.94,33.35,54.1,34.4,56,34.4a15.09,15.09,0,0,0,1.55-.68l.07,0s-1.76-2.27-2.38-3.07l.22-.11a10.41,10.41,0,0,0,1.23-.75,15.6,15.6,0,0,0,4.73-4.83,10.17,10.17,0,0,0,1.07-2.36l-.1-.06A9.23,9.23,0,0,1,61.19,24.42Z" transform="translate(-0.39 -0.23)"/><path class="cls-2" d="M60.9,13.37a13.39,13.39,0,0,1-2.61,4.36,23.7,23.7,0,0,1-6.59,5.21l-.38.2h0l-.68.33-.63.29a27.08,27.08,0,0,1-2.74,1.08,10.56,10.56,0,0,1-1.14.33h0c-.44.12-.88.23-1.31.31A26.71,26.71,0,0,0,49,30.8a24.91,24.91,0,0,0,4.55-1.58l.49-.23c-.95-1.4-1.92-2.95-2.86-4.53l0,0,.63-.32c.53-.28,1-.55,1.33-.78a20.07,20.07,0,0,0,5.36-5A14,14,0,0,0,61,13.5Z" transform="translate(-0.39 -0.23)"/><path class="cls-2" d="M46.77,15.94l-.61.27a18.2,18.2,0,0,1-4.79,1.32,29.16,29.16,0,0,0,2.52,6.35l.43.78A25.18,25.18,0,0,0,49.54,23l.64-.29q-.5-.9-1-1.84c0,.05-1.12-2.21-1.69-3.36l-.27-.57.21-.11.26-.14.06,0,.7-.38a14.75,14.75,0,0,0,5.79-5.59,10,10,0,0,0,1-2.49l-.1-.06A9.44,9.44,0,0,1,54,10.25a18.33,18.33,0,0,1-6,5.1l-.11.05S47.51,15.6,46.77,15.94Z" transform="translate(-0.39 -0.23)"/></svg>