<svg width="219" height="92" viewBox="0 0 219 92" fill="none" xmlns="http://www.w3.org/2000/svg">
<path d="M11.9453 46.1338C11.5157 44.5478 10.9144 41.428 7.40973 41.428C6.99294 41.3962 6.57421 41.4534 6.18056 41.5959C5.78692 41.7385 5.42711 41.9632 5.12437 42.2555C4.82163 42.5478 4.58268 42.9013 4.42296 43.2932C4.26323 43.685 4.18628 44.1065 4.19706 44.5303C4.19706 49.3058 14.5051 48.9921 14.5051 55.6324C14.5051 60.0419 10.4678 61.6453 6.60227 61.6453C4.64803 61.6943 2.71043 61.2701 0.950042 60.4079C0.225982 58.5533 -0.0906158 56.5608 0.0223211 54.5693L1.53416 54.2556C1.98084 56.1204 3.046 60.4602 7.15203 60.4602C7.61246 60.4969 8.07526 60.4319 8.50855 60.2697C8.94185 60.1075 9.33534 59.852 9.66191 59.5207C9.98849 59.1894 10.2404 58.7902 10.4003 58.3506C10.5602 57.911 10.6242 57.4415 10.588 56.9744C10.588 51.7458 0.623622 52.1293 0.623622 45.7852C0.623622 41.8463 3.6473 40.1906 7.78769 40.1906C9.51517 40.1578 11.221 40.5844 12.7355 41.428C12.9717 42.9849 13.0808 44.5588 13.062 46.1338H11.9453Z" fill="#003946"/>
<path d="M28.1804 60.0593C26.7598 61.0444 25.0901 61.5949 23.37 61.6453C18.3878 61.6453 18.216 58.8567 18.216 55.4059V50.9093C18.216 49.8287 18.216 48.4344 17.2539 48.4344C16.903 48.4473 16.5558 48.5119 16.2231 48.6261V47.7198C18.1125 47.0856 20.077 46.7105 22.0643 46.6044V55.3187C22.0643 57.7762 22.5454 59.8502 25.6893 59.8502C26.5443 59.8177 27.375 59.5529 28.0945 59.0833V50.9093C28.0945 49.8287 28.0945 48.4344 27.1325 48.4344C26.7816 48.448 26.4345 48.5126 26.1017 48.6261V47.7198C27.991 47.0856 29.9555 46.7105 31.9429 46.6044V55.8764C31.9429 58.421 31.9429 59.6236 33.0252 59.6236C33.3223 59.6516 33.6214 59.6516 33.9186 59.6236V60.4253C32.3309 60.9407 30.7127 61.354 29.0738 61.6628L28.1804 60.0593Z" fill="#003946"/>
<path d="M37.8527 50.9092C37.8527 49.8287 37.8527 48.4344 36.8907 48.4344C36.5398 48.4482 36.1927 48.5128 35.8599 48.6261V47.7198C37.7284 47.1046 39.6699 46.747 41.6323 46.6566V48.3995C43.0732 47.1817 44.9134 46.5594 46.7863 46.6566C49.6726 46.6566 51.6311 47.9986 51.6311 52.1815V58.299C51.6311 59.9373 51.7857 60.2859 52.954 60.373H53.624V61.1747H45.704V60.373H46.374C47.5251 60.2859 47.6969 59.9373 47.6969 58.299V53.8198C47.6969 51.3624 47.6969 48.3995 44.364 48.3995C43.8635 48.3999 43.3685 48.5054 42.9102 48.7093C42.4519 48.9133 42.0402 49.2113 41.7011 49.5847V58.299C41.7011 59.9373 41.8557 60.2859 43.0239 60.373H43.6939V61.1747H35.9286V60.373H36.5986C37.6981 60.2859 37.8527 59.9373 37.8527 58.299V50.9092Z" fill="#003946"/>
<path d="M88.7573 89.7229L89.4961 89.6358C91.0423 89.4441 91.0423 89.3918 91.0423 85.9758V74.5425C91.0423 71.2834 91.0423 71.0568 89.5304 70.8825L88.7573 70.7954V69.9937H103.566C103.816 71.6547 103.936 73.333 103.927 75.0131L102.776 75.1351C102.106 72.2245 101.934 71.1614 97.7596 71.1614H95.1998V79.7711H97.7081C100.216 79.7711 100.852 79.7711 101.144 78.4291L101.333 77.3486H102.175V83.588H101.333L101.178 82.4029C100.921 81.1654 100.113 81.1654 97.7425 81.1654H95.1998V85.8712C95.1998 89.1826 95.1998 89.3569 96.746 89.5312L97.4848 89.6184V90.4201H88.7573V89.7229Z" fill="#003946"/>
<path d="M105.834 89.7229H106.504C107.655 89.6009 107.827 89.2872 107.827 87.6489V80.3288C107.827 79.2483 107.827 77.854 106.865 77.854C106.515 77.8631 106.168 77.9218 105.834 78.0283V77.122C107.723 76.4878 109.688 76.1127 111.675 76.0065V87.6315C111.675 89.2698 111.83 89.5835 112.998 89.7055H113.668V90.5072H105.834V89.7229ZM107.277 71.1614C107.284 70.8699 107.347 70.5827 107.465 70.3165C107.582 70.0504 107.75 69.8105 107.959 69.6109C108.169 69.4114 108.416 69.2562 108.685 69.1543C108.954 69.0524 109.241 69.006 109.528 69.0176C110.105 69.0034 110.665 69.2204 111.086 69.6215C111.507 70.0226 111.756 70.5758 111.778 71.1614C111.778 71.7669 111.541 72.3476 111.119 72.7758C110.697 73.204 110.125 73.4445 109.528 73.4445C108.931 73.4445 108.358 73.204 107.936 72.7758C107.514 72.3476 107.277 71.7669 107.277 71.1614Z" fill="#003946"/>
<path d="M117.757 80.2592C117.757 79.1786 117.757 77.7843 116.795 77.7843C116.444 77.7984 116.097 77.863 115.764 77.976V77.0697C117.63 76.4355 119.572 76.0603 121.537 75.9543V77.6971C122.978 76.4808 124.818 75.8587 126.691 75.9543C129.577 75.9543 131.535 77.2963 131.535 81.4792V87.5967C131.535 89.235 131.69 89.5835 132.858 89.6707H133.528V90.4724H125.625V89.6707H126.296C127.447 89.5835 127.618 89.235 127.618 87.5967V83.2569C127.618 80.7995 127.618 77.8366 124.285 77.8366C123.785 77.8369 123.29 77.9424 122.832 78.1464C122.373 78.3504 121.962 78.6484 121.623 79.0217V87.7361C121.623 89.3744 121.777 89.723 122.945 89.8101H123.615V90.6118H115.833V89.8101H116.503C117.602 89.723 117.757 89.3744 117.757 87.7361V80.2592Z" fill="#003946"/>
<path d="M143.527 86.7426C143.527 87.3352 143.63 88.102 143.647 88.4855C143.103 88.9639 142.409 89.2296 141.689 89.2349C141.361 89.2359 141.036 89.168 140.735 89.0353C140.435 88.9026 140.164 88.7081 139.942 88.4641C139.719 88.22 139.548 87.9317 139.441 87.6174C139.334 87.3031 139.292 86.9696 139.318 86.638C139.318 84.3374 141.345 83.4137 143.166 83.4137H143.527V86.7426ZM149.694 89.7752C149.609 89.7892 149.522 89.7892 149.437 89.7752C147.375 89.7752 147.375 87.4746 147.375 85.2437V81.514C147.375 78.0282 146.671 75.9542 142.633 75.9542C141.326 75.9918 140.04 76.3039 138.857 76.8708C137.675 77.4378 136.62 78.2473 135.761 79.2482C135.939 79.8303 136.232 80.3698 136.62 80.8343H136.947C137.198 79.9891 137.698 79.242 138.38 78.6937C139.061 78.1453 139.892 77.8218 140.761 77.7668C143.046 77.7668 143.561 79.4051 143.561 81.2525V82.002C140.898 82.6817 135.246 83.7448 135.246 87.6489C135.246 89.6357 136.964 91.03 139.455 91.03C141.077 91.0204 142.649 90.4623 143.922 89.444C144.231 89.9957 144.695 90.4412 145.255 90.7238C145.815 91.0063 146.446 91.1129 147.066 91.03C148.024 91.0042 148.959 90.7281 149.78 90.2283L149.694 89.7752Z" fill="#003946"/>
<path d="M153.096 80.2592C153.096 79.1787 153.096 77.7844 152.134 77.7844C151.784 77.7992 151.437 77.8637 151.104 77.9761V77.0698C152.969 76.4362 154.911 76.061 156.876 75.9544V77.6972C158.317 76.4794 160.157 75.8571 162.03 75.9544C164.916 75.9544 166.875 77.2964 166.875 81.4793V87.5967C166.875 89.235 167.029 89.5836 168.198 89.6707H168.868V90.4725H160.965V89.6707H161.635C162.786 89.5836 162.958 89.235 162.958 87.5967V83.257C162.958 80.7995 162.958 77.8367 159.625 77.8367C159.124 77.837 158.629 77.9425 158.171 78.1465C157.713 78.3505 157.301 78.6485 156.962 79.0218V87.7362C156.962 89.3745 157.117 89.723 158.285 89.8102H158.955V90.6119H151.172V89.8102H151.842C152.942 89.723 153.096 89.3745 153.096 87.7362V80.2592Z" fill="#003946"/>
<path d="M183.316 89.4092C181.607 90.5476 179.585 91.1033 177.543 90.9952C176.605 91.054 175.665 90.9226 174.777 90.6088C173.89 90.295 173.073 89.805 172.374 89.1674C171.675 88.5297 171.108 87.7573 170.707 86.8951C170.305 86.033 170.077 85.0983 170.036 84.1457C170.042 83.0391 170.267 81.945 170.699 80.9287C171.131 79.9125 171.76 78.9948 172.548 78.2304C173.337 77.4659 174.27 76.8705 175.29 76.4794C176.311 76.0884 177.398 75.9097 178.488 75.9542C180.013 75.8282 181.538 76.1876 182.852 76.9825C182.721 77.9476 182.28 78.842 181.598 79.5271H181.306C180.873 78.9369 180.318 78.4501 179.68 78.1008C179.042 77.7515 178.336 77.5483 177.612 77.5054C175.55 77.5054 174.176 79.3877 174.176 82.5248C174.176 87.1434 176.942 89.2 180.155 89.2C181.147 89.1648 182.131 88.9888 183.075 88.6772L183.316 89.4092Z" fill="#003946"/>
<path d="M185 89.7229H185.67C186.821 89.6009 186.975 89.2872 186.975 87.6489V80.3288C186.975 79.2483 186.975 77.854 186.013 77.854C185.663 77.869 185.316 77.9335 184.982 78.0457V77.1394C186.872 76.5052 188.836 76.1301 190.824 76.024V87.6489C190.824 89.2872 190.978 89.6009 192.146 89.7229H192.817V90.5246H184.982L185 89.7229ZM186.443 71.1614C186.449 70.8699 186.513 70.5827 186.63 70.3165C186.747 70.0504 186.916 69.8105 187.125 69.6109C187.335 69.4114 187.581 69.2562 187.85 69.1543C188.12 69.0524 188.406 69.006 188.693 69.0176C189.271 69.0034 189.831 69.2204 190.252 69.6215C190.673 70.0226 190.921 70.5758 190.944 71.1614C190.944 71.7669 190.707 72.3476 190.285 72.7758C189.863 73.204 189.29 73.4445 188.693 73.4445C188.096 73.4445 187.524 73.204 187.102 72.7758C186.68 72.3476 186.443 71.7669 186.443 71.1614Z" fill="#003946"/>
<path d="M203.434 86.7426C203.449 87.3256 203.495 87.9074 203.571 88.4855C203.027 88.9639 202.333 89.2296 201.613 89.2349C201.285 89.2359 200.96 89.168 200.66 89.0353C200.359 88.9026 200.089 88.7081 199.866 88.4641C199.643 88.22 199.472 87.9317 199.365 87.6174C199.258 87.3031 199.216 86.9696 199.242 86.638C199.242 84.3374 201.269 83.4137 203.09 83.4137H203.434V86.7426ZM209.601 89.7752C209.516 89.7892 209.429 89.7892 209.344 89.7752C207.282 89.7752 207.282 87.4746 207.282 85.2437V81.514C207.282 78.0282 206.578 75.9542 202.523 75.9542C201.216 75.9918 199.93 76.3039 198.747 76.8708C197.564 77.4378 196.51 78.2473 195.651 79.2482C195.829 79.8303 196.121 80.3698 196.51 80.8343H196.888C197.14 79.9864 197.643 79.2375 198.328 78.6889C199.013 78.1403 199.848 77.8184 200.719 77.7668C203.004 77.7668 203.52 79.4051 203.52 81.2525V82.002C200.857 82.6817 195.205 83.7448 195.205 87.6489C195.205 89.6357 196.923 91.03 199.414 91.03C201.035 91.0191 202.606 90.4611 203.881 89.444C204.19 89.9957 204.654 90.4412 205.214 90.7238C205.774 91.0063 206.404 91.1129 207.024 91.03C207.998 91.0186 208.952 90.7481 209.79 90.2457L209.601 89.7752Z" fill="#003946"/>
<path d="M210.976 89.723H211.646C212.797 89.601 212.968 89.2873 212.968 87.649V73.706C212.968 70.9697 212.968 69.7671 211.869 69.7671C211.491 69.7671 211.096 69.7671 210.976 69.7671V68.9654C212.893 68.5215 214.85 68.282 216.817 68.2509V87.5793C216.817 89.2176 216.971 89.5313 218.14 89.6533H218.81V90.455H210.976V89.723Z" fill="#003946"/>
<path d="M28.7988 89.7055L29.5719 89.6184C31.0838 89.3395 31.0838 89.4615 31.0838 85.9235V74.5425C31.0838 71.5274 31.0838 71.1614 29.5719 70.9522L28.7988 70.8651V70.0634H37.5263V70.8651L36.7532 70.9522C35.2413 71.1614 35.2413 71.5448 35.2413 74.5425V88.9038C35.9556 89.1563 36.702 89.3031 37.4576 89.3395C41.9759 89.3395 42.0103 87.2306 42.9552 84.6512L44.1062 84.8603C43.985 86.7849 43.6094 88.6842 42.9895 90.5072H28.7988V89.7055Z" fill="#003946"/>
<path d="M45.7041 89.7055H46.3741C47.5252 89.5835 47.697 89.2698 47.697 87.6315V80.3114C47.697 79.2308 47.697 77.8365 46.7349 77.8365C46.3852 77.8479 46.0385 77.9065 45.7041 78.0108V77.122C47.5935 76.4878 49.5579 76.1127 51.5453 76.0065V87.6315C51.5453 89.2698 51.6999 89.5835 52.851 89.7055H53.521V90.5072H45.7041V89.7055ZM47.1472 71.1614C47.1538 70.8699 47.2176 70.5827 47.3347 70.3165C47.4519 70.0504 47.6201 69.8105 47.8296 69.6109C48.0391 69.4114 48.2857 69.2562 48.5549 69.1543C48.8241 69.0524 49.1107 69.006 49.3978 69.0176C49.9753 69.0034 50.5351 69.2204 50.9562 69.6215C51.3774 70.0226 51.626 70.5758 51.6484 71.1614C51.6484 71.7669 51.4113 72.3476 50.9892 72.7758C50.5671 73.204 49.9947 73.4445 49.3978 73.4445C48.8009 73.4445 48.2285 73.204 47.8064 72.7758C47.3843 72.3476 47.1472 71.7669 47.1472 71.1614Z" fill="#003946"/>
<path d="M57.5412 77.7843V76.39C57.5412 72.0851 59.7574 67.6757 64.7912 67.6757C66.0157 67.6352 67.2204 67.9957 68.2272 68.704C68.0949 69.6058 67.6649 70.4353 67.0074 71.0568H66.7841C65.8783 70.1391 64.7135 69.5299 63.4511 69.314C61.527 69.314 61.4067 71.8237 61.4067 74.682V76.4249C62.3688 76.4249 64.3273 76.5817 65.3925 76.7037V77.5055C64.0181 77.6623 62.7639 77.7495 61.4067 77.8192V87.5967C61.4067 89.235 61.5613 89.5835 62.7468 89.6707H64.0353V90.4724H55.5483V89.7055H56.184C57.3694 89.5835 57.5412 89.2698 57.5412 87.6315V77.7843Z" fill="#003946"/>
<path d="M70.3401 82.5074C70.3401 81.9497 70.3401 77.1046 73.1404 77.1046C75.1677 77.1046 76.1298 78.9346 76.3531 81.1654C74.3853 81.7671 72.3751 82.2157 70.3401 82.5074ZM79.7891 88.2763C78.6914 88.8419 77.481 89.1459 76.25 89.1652C74.8114 89.2273 73.4063 88.7144 72.3365 87.7367C71.2667 86.759 70.6178 85.3945 70.5291 83.9366C73.8326 83.253 77.0653 82.2552 80.1842 80.9563C79.8235 79.2134 78.9988 75.902 73.8276 75.902C72.8386 75.8965 71.8587 76.0944 70.9471 76.4838C70.0355 76.8732 69.2112 77.446 68.524 78.1677C67.8368 78.8893 67.3008 79.7447 66.9486 80.6823C66.5963 81.62 66.4351 82.6203 66.4746 83.6229C66.4432 84.6182 66.6182 85.6092 66.9884 86.5315C67.3585 87.4539 67.9155 88.2871 68.6233 88.9772C69.3311 89.6673 70.1738 90.1988 71.097 90.5374C72.0201 90.8761 73.0031 91.0142 73.9822 90.9429C76.167 90.9964 78.3071 90.3095 80.064 88.9909L79.7891 88.2763Z" fill="#003946"/>
<path d="M100.182 10.4049C100.106 7.82441 100.532 5.25406 101.436 2.84082L101.161 2.68396C99.1459 4.32351 97.4751 6.35624 96.2476 8.662C97.6027 9.13544 98.9184 9.71826 100.182 10.4049Z" fill="#E9AC21"/>
<path d="M86.6096 7.16319C85.2549 4.97862 84.3384 2.54443 83.9123 0H83.6031C82.6919 2.44726 82.2714 5.05439 82.3661 7.66863C83.7649 7.38467 85.184 7.21564 86.6096 7.16319Z" fill="#E9AC21"/>
<path d="M93.6018 7.86033C92.8639 5.38963 92.6128 2.79568 92.863 0.226562H92.5538C91.0393 2.34633 89.9586 4.75233 89.3755 7.30261C90.7968 7.37185 92.2103 7.55838 93.6018 7.86033Z" fill="#E9AC21"/>
<path d="M105.834 14.5878C106.43 12.0741 107.51 9.70487 109.013 7.61634L108.789 7.38977C106.437 8.4247 104.312 9.92356 102.536 11.7992C103.707 12.6371 104.811 13.5696 105.834 14.5878Z" fill="#E9AC21"/>
<path d="M110.267 20.1476C111.493 17.8907 113.145 15.9008 115.129 14.2916L114.974 14.0127C112.421 14.3864 109.967 15.2754 107.758 16.627C108.687 17.7295 109.526 18.9069 110.267 20.1476Z" fill="#E9AC21"/>
<path d="M112.826 25.9514L113.049 26.7008C114.812 24.8164 116.926 23.3058 119.269 22.2565V21.9428C116.706 21.6265 114.106 21.8339 111.624 22.5528C112.098 23.6573 112.5 24.7926 112.826 25.9514Z" fill="#E9AC21"/>
<path d="M113.187 40.8355C115.641 40.1489 118.203 39.9594 120.729 40.2778L120.815 39.9815C118.778 38.3639 116.441 37.1785 113.943 36.4957C113.809 37.961 113.556 39.4125 113.187 40.8355Z" fill="#E9AC21"/>
<path d="M113.668 29.437C113.916 30.8644 114.048 32.31 114.063 33.7594C116.252 32.4447 118.675 31.58 121.193 31.2148V30.9708C118.811 29.9543 116.252 29.4328 113.668 29.437Z" fill="#E9AC21"/>
<path d="M112.345 43.5021C111.837 44.8572 111.222 46.1686 110.507 47.4235C113.053 47.4166 115.575 47.9201 117.929 48.905L118.1 48.6435C116.539 46.5576 114.582 44.8095 112.345 43.5021Z" fill="#E9AC21"/>
<path d="M79.6001 8.31353C77.7249 6.56891 76.207 4.46645 75.1333 2.12634H74.824C74.5777 4.80267 74.8759 7.50182 75.7002 10.0564C76.9523 9.37095 78.2564 8.78814 79.6001 8.31353Z" fill="#E9AC21"/>
<path d="M100.68 57.4101C102.877 58.7112 104.798 60.4408 106.332 62.4993L106.607 62.3599C106.275 59.7517 105.428 57.2384 104.116 54.9701C103.036 55.874 101.887 56.6899 100.68 57.4101Z" fill="#E9AC21"/>
<path d="M106.246 53.0879C108.707 53.7849 111.008 54.9696 113.015 56.5736L113.256 56.3645C112.287 53.9393 110.85 51.735 109.029 49.881C108.187 51.0235 107.257 52.0958 106.246 53.0879Z" fill="#E9AC21"/>
<path d="M69.5326 43.1708C70.9633 43.2059 72.3943 43.1185 73.8104 42.9094L73.3294 42.0205C71.3645 38.336 69.9078 34.3951 69 30.3084C68.0336 30.3831 67.063 30.3831 66.0966 30.3084C64.3962 30.1288 62.7725 29.4976 61.3893 28.4784C60.5019 31.9482 60.3091 35.5632 60.8223 39.1099C60.8223 39.1099 62.8839 43.1708 69.5326 43.1708Z" fill="#E9AC21"/>
<path d="M79.3251 54.0639C80.2528 53.9593 81.1461 53.8024 82.0223 53.6281C79.163 50.9014 76.6886 47.7871 74.6693 44.3735C73.2716 44.6033 71.8588 44.7256 70.443 44.7395C62.5574 44.6001 61.3032 41.6372 61.3032 41.6372C61.3032 41.6372 61.5953 42.5958 61.6468 42.7875C62.1457 44.4705 62.8075 46.0993 63.6225 47.6501C64.1619 48.6716 64.7764 49.6503 65.4608 50.5781C65.4608 50.5781 69.5324 55.0922 79.3251 54.0639Z" fill="#E9AC21"/>
<path d="M70.031 28.6354C72.7817 28.2799 75.4635 27.5043 77.9854 26.3348L78.999 25.8817C76.9883 21.2675 75.2669 16.529 73.845 11.6947L73.5357 11.7993C72.7626 12.2698 72.0067 12.7753 71.3023 13.3156C69.0346 16.627 68.6394 22.2565 70.031 28.6354Z" fill="#E9AC21"/>
<path d="M68.6907 28.7225C67.677 22.8839 68.2268 17.6727 70.3056 14.1696C66.4097 17.4653 63.5394 21.8363 62.042 26.7531C63.9228 28.259 66.3066 28.9651 68.6907 28.7225Z" fill="#E9AC21"/>
<path d="M83.4997 54.9178C78.8955 56.0158 73.6556 56.3469 69.2231 54.2555C72.5408 57.3709 76.6126 59.5393 81.0243 60.5404C85.4361 61.5414 90.0305 61.3393 94.3403 59.9547C90.302 59.4472 86.5163 57.6883 83.4997 54.9178Z" fill="#E9AC21"/>
<path d="M104.442 42.16C101.687 45.6198 98.3049 48.5127 94.4779 50.6826L93.0863 51.3972L92.3132 51.7632C89.9274 52.8804 87.457 53.8013 84.9258 54.517C88.5508 57.7238 92.2616 59.5539 95.5258 59.5539C96.4346 59.2097 97.3237 58.814 98.1888 58.3687H98.309C98.309 58.3687 95.2853 54.4124 94.2202 53.0181L94.5981 52.8264C95.3314 52.4407 96.0375 52.0039 96.7113 51.5192C99.994 49.3495 102.768 46.476 104.837 43.1012C105.621 41.8152 106.238 40.433 106.676 38.988L106.504 38.8834C105.95 40.0561 105.258 41.1564 104.442 42.16Z" fill="#E9AC21"/>
<path d="M103.944 22.9012C102.941 25.7014 101.419 28.2808 99.4603 30.5002C96.2496 34.1867 92.4155 37.2618 88.1387 39.5805L87.4859 39.9291L86.3176 40.5042L85.2353 41.0097C83.701 41.7233 82.1296 42.3516 80.528 42.892C79.8863 43.1208 79.2324 43.3128 78.5694 43.4671C77.8135 43.6763 77.0576 43.868 76.3188 44.0074C78.3155 47.3944 80.7286 50.5101 83.5001 53.2795C86.1873 52.6199 88.8052 51.6976 91.317 50.5257L92.1588 50.1249C90.5267 47.6848 88.8603 44.9834 87.2453 42.2297L88.3277 41.6719C89.2382 41.1839 90.0457 40.7134 90.6126 40.3125C94.1834 38.0058 97.305 35.0518 99.8211 31.5982C101.787 29.0884 103.247 26.2101 104.116 23.1278L103.944 22.9012Z" fill="#E9AC21"/>
<path d="M79.6688 27.3805L78.6208 27.851C75.9943 28.9959 73.2254 29.77 70.3916 30.1516C71.4023 34.0001 72.8554 37.7146 74.721 41.2189L75.4597 42.5783C78.5438 41.9476 81.551 40.9775 84.4277 39.6851L85.5272 39.1797C84.9545 38.134 84.3819 37.065 83.8092 35.9728C83.8092 36.06 81.885 32.1211 80.9058 30.1168L80.4419 29.1233L80.8027 28.9316L81.2494 28.6876H81.3525L82.5551 28.0253C86.6969 25.776 90.1409 22.4029 92.5023 18.2827C93.2645 16.921 93.8424 15.4613 94.2203 13.943L94.0485 13.8384C93.5485 15.1255 92.8905 16.3435 92.09 17.4635C89.3293 21.149 85.8121 24.1819 81.782 26.3522L81.593 26.4393C81.593 26.4393 80.9401 26.7879 79.6688 27.3805Z" fill="#E9AC21"/>
</svg>
